<mxfile host="app.diagrams.net" modified="2023-11-06T17:18:41.810Z" agent="Mozilla/5.0 (Macintosh; Intel Mac OS X 10_15_7) AppleWebKit/605.1.15 (KHTML, like Gecko) Version/16.0 Safari/605.1.15" version="22.0.8" etag="Oi5dY1YNNpiHbpHQnIpO" type="github">
  <diagram name="Страница — 1" id="pEgZHFE_6zmDFUJp2YOd">
    <mxGraphModel>
      <root>
        <mxCell id="0" />
        <mxCell id="1" parent="0" />
      </root>
    </mxGraphModel>
  </diagram>
</mxfile>
